<svg version="1.1" id="Layer_1" xmlns="http://www.w3.org/2000/svg" xmlns:xlink="http://www.w3.org/1999/xlink" x="0px" y="0px"
	 width="100%" viewBox="0 0 500 500" enable-background="new 0 0 500 500" xml:space="preserve">
<path fill="#000000" opacity="1.000000" stroke="none" 
	d="
M333.000000,501.000000 
	C222.000031,501.000000 111.500053,501.000000 1.000059,501.000000 
	C1.000040,334.333405 1.000040,167.666794 1.000020,1.000149 
	C167.666565,1.000099 334.333130,1.000099 500.999756,1.000050 
	C500.999847,167.666519 500.999847,334.333038 500.999939,500.999786 
	C445.166656,501.000000 389.333344,501.000000 333.000000,501.000000 
M165.038635,265.957062 
	C165.023499,271.204163 164.704483,276.475647 165.123108,281.687897 
	C165.328339,284.243317 166.903091,286.688751 168.047272,289.812073 
	C169.819244,290.914856 171.591202,292.017670 174.030548,293.781616 
	C181.012131,293.836884 187.993713,293.892151 195.886246,294.162231 
	C200.256271,294.089752 204.626297,294.017273 209.893097,294.152222 
	C213.260941,294.084961 216.628784,294.017670 220.914658,294.156616 
	C231.282166,294.086639 241.649658,294.016663 252.928482,294.165222 
	C259.947327,294.087860 266.966156,294.010498 274.897430,294.148895 
	C279.592834,294.072235 284.288269,293.995605 289.893829,294.131653 
	C294.257690,294.062988 298.621552,293.994324 303.891632,294.144073 
	C307.927948,294.071899 311.964264,293.999695 316.895050,294.150726 
	C320.267365,294.005890 323.639648,293.861053 327.699829,293.753967 
	C334.679169,290.277740 336.808350,286.927551 335.968201,280.147858 
	C336.131317,274.773315 336.294464,269.398743 336.699890,263.115509 
	C336.623993,258.084473 336.548096,253.053406 336.704315,247.112869 
	C336.621918,242.416122 336.539520,237.719360 336.694855,232.117111 
	C336.617462,227.743713 336.540039,223.370331 336.697144,218.090454 
	C336.613586,212.391968 336.529999,206.693466 336.687500,200.170776 
	C336.574280,194.774689 336.461060,189.378601 336.595978,183.236557 
	C336.569458,181.164276 336.542969,179.091995 336.754456,176.109497 
	C336.777802,163.480179 336.831390,150.850815 336.815094,138.221558 
	C336.801575,127.750534 331.779266,122.651741 321.253021,122.627991 
	C293.999146,122.566483 266.745087,122.595924 239.491119,122.616112 
	C238.350800,122.616951 237.210663,122.889839 235.224609,122.890121 
	C233.810547,122.948959 232.396484,123.007797 230.244415,122.755524 
	C213.281372,122.711304 196.317245,122.558693 179.356415,122.731766 
	C176.596191,122.759941 173.850677,124.229118 170.436111,125.228874 
	C168.644669,128.405075 165.478073,131.510651 165.310638,134.770279 
	C164.727188,146.130020 165.181778,157.543091 165.091461,169.861298 
	C165.139572,173.547714 165.187668,177.234131 165.084137,181.822678 
	C165.133575,184.551910 165.182999,187.281143 165.081909,190.912262 
	C165.128891,194.281647 165.175873,197.651016 165.072632,201.900177 
	C165.121628,204.275986 165.170609,206.651794 165.068039,209.945984 
	C165.112030,214.612793 165.156021,219.279602 165.052658,224.714233 
	C165.103546,225.488129 165.154434,226.262009 165.054565,227.945877 
	C165.100784,231.968750 165.146988,235.991623 165.045166,240.912796 
	C165.092957,243.945633 165.140747,246.978485 165.040115,250.878906 
	C165.091171,252.925705 165.142227,254.972519 165.046478,257.900604 
	C165.095428,260.279053 165.144379,262.657532 165.038635,265.957062 
M373.991028,341.005035 
	C373.602600,343.507355 373.995026,347.445557 372.645050,348.179657 
	C370.554810,349.316376 367.222382,348.543915 364.521545,348.029907 
	C363.099701,347.759308 361.900299,346.320038 359.761810,344.820312 
	C361.168671,350.732819 364.437439,353.075592 369.400909,352.829956 
	C374.408905,352.582153 378.007477,349.615723 378.339020,344.553955 
	C378.750824,338.266693 378.596588,331.937286 378.509521,325.628540 
	C378.498230,324.810669 377.429871,324.007355 376.851196,323.197296 
	C375.998779,323.946014 375.146332,324.694763 374.238861,325.491852 
	C369.105011,322.042999 364.532776,322.137970 361.062195,325.921387 
	C357.808228,329.468689 357.557770,335.848572 360.518677,339.765381 
	C363.562042,343.791321 368.115265,344.390747 373.991028,341.005035 
M166.021423,324.716217 
	C163.871521,322.093109 162.408554,322.560211 162.345337,325.845154 
	C162.191742,333.826477 162.211182,341.814697 162.399399,349.794464 
	C162.422333,350.766418 163.906052,351.703888 164.712769,352.657318 
	C165.122787,352.341492 165.532806,352.025665 165.942825,351.709808 
	C165.942825,349.895874 165.942825,348.081909 165.942825,346.267975 
	C165.942825,344.540192 165.942825,342.812408 165.942825,340.794098 
	C173.983246,345.107880 180.352539,343.164612 182.028870,336.319092 
	C183.081711,332.019623 182.540405,327.955414 178.853317,325.010101 
	C174.696503,321.689606 170.517044,322.623718 166.021423,324.716217 
M316.000275,324.175507 
	C310.812531,328.458282 309.634308,333.925903 312.796661,339.042236 
	C315.770813,343.854218 320.433167,344.465240 326.883423,341.319427 
	C328.396912,342.109894 329.518188,342.695526 331.194611,343.571075 
	C331.194611,336.969360 331.259247,331.345795 331.125305,325.726929 
	C331.105103,324.880341 330.158112,324.055847 329.639862,323.221130 
	C328.833771,323.968964 328.027710,324.716827 327.141785,325.538788 
	C324.127106,323.132050 320.683228,321.962219 316.000275,324.175507 
M101.655128,336.642548 
	C104.390816,341.483093 108.474480,343.642212 114.063477,343.137177 
	C118.732033,342.715302 121.989037,340.527130 123.602180,335.845184 
	C121.910774,336.025635 120.338272,336.521729 119.195534,337.513153 
	C115.140778,341.031128 109.636009,341.134460 106.264687,337.563324 
	C102.926498,334.027283 102.955505,326.895874 106.322418,323.363495 
	C109.705803,319.813843 115.146812,319.986816 119.257828,323.530945 
	C120.391014,324.507874 122.064995,324.857513 123.490829,325.494995 
	C123.780991,324.915131 124.071152,324.335266 124.361313,323.755371 
	C122.347282,322.139496 120.540428,320.097473 118.275993,318.996704 
	C113.587578,316.717590 108.777992,317.111938 104.755348,320.558807 
	C99.893265,324.725006 99.098953,330.079651 101.655128,336.642548 
M398.899780,334.529602 
	C401.961426,334.745636 402.040680,332.930023 401.597839,330.660065 
	C400.679443,325.953247 396.865173,322.892517 391.969696,322.999847 
	C386.807007,323.113037 383.334900,326.263397 382.584442,331.515350 
	C381.861206,336.576996 384.471313,341.425323 388.696136,342.867767 
	C393.789398,344.606720 398.280975,342.617065 400.539032,336.951935 
	C398.723785,337.493134 397.305420,338.878876 395.625732,339.368896 
	C393.663971,339.941315 391.247559,340.342346 389.452118,339.675964 
	C387.908173,339.102936 386.960083,336.924438 384.987274,334.533112 
	C390.406769,334.533112 394.214020,334.533112 398.899780,334.529602 
M303.787994,335.414001 
	C304.769928,337.875763 301.768555,341.871185 307.064972,343.448914 
	C307.064972,338.725281 307.269562,334.597382 307.015564,330.497864 
	C306.661438,324.782593 301.964050,321.704956 296.500092,323.379333 
	C295.376892,323.723572 294.319305,324.282043 292.942261,324.863983 
	C292.942261,322.562531 293.112793,320.717926 292.870880,318.929077 
	C292.748474,318.023987 291.880554,317.219757 291.349701,316.369904 
	C290.664185,317.258545 289.404907,318.133881 289.383972,319.037903 
	C289.218658,326.172363 289.199402,333.314728 289.390930,340.447784 
	C289.417847,341.451050 290.831543,342.417084 291.603333,343.400330 
	C292.065155,343.111145 292.527008,342.821960 292.988831,342.532745 
	C292.988831,338.737274 292.427124,334.820099 293.212646,331.194824 
	C293.641205,329.217010 296.274017,326.491974 298.057007,326.378906 
	C299.819031,326.267181 301.991882,328.823486 303.521484,330.606598 
	C304.197723,331.394897 303.731873,333.162842 303.787994,335.414001 
M218.372147,332.678070 
	C217.284439,326.362885 214.283340,323.265289 209.002182,323.006866 
	C204.098663,322.766937 200.151627,325.541718 198.900208,330.108551 
	C197.251602,336.124908 200.293732,341.865845 205.737411,343.011230 
	C212.675873,344.471100 217.257248,341.001953 218.372147,332.678070 
M149.098129,336.831116 
	C142.655838,320.342590 144.408920,322.973450 140.579193,323.944397 
	C142.416855,333.240509 152.164520,341.300812 143.848877,352.183228 
	C144.748001,352.374084 145.647125,352.564941 146.546249,352.755798 
	C152.276382,343.782684 154.958008,333.367401 158.469894,323.203491 
	C156.750305,323.883759 155.568710,324.949738 154.890625,326.273651 
	C152.988602,329.987152 151.294327,333.807007 149.098129,336.831116 
M336.735718,335.394867 
	C336.745697,342.600311 336.745697,342.600311 340.028015,342.424408 
	C340.028015,338.958618 339.913269,335.475128 340.059692,332.002686 
	C340.211578,328.400513 341.843597,325.871368 345.843414,326.010254 
	C349.573181,326.139801 350.983337,328.548584 351.000519,331.999146 
	C351.018524,335.617920 351.004547,339.236816 351.004547,342.855682 
	C351.377930,343.045441 351.751343,343.235199 352.124725,343.424957 
	C352.867218,342.578430 354.201569,341.763550 354.248810,340.879883 
	C354.443329,337.238983 354.466888,333.557434 354.139893,329.928101 
	C353.716034,325.223053 350.201752,322.531738 345.532410,323.048065 
	C342.803406,323.349884 340.095215,323.840118 336.735535,324.341400 
	C336.735535,327.224884 336.735535,330.839081 336.735718,335.394867 
M236.569534,320.995209 
	C239.624268,320.160278 243.504593,322.433044 246.813873,318.318176 
	C241.245651,318.318176 236.745026,318.318176 232.385895,318.318176 
	C232.385895,326.741333 232.385895,334.791290 232.385895,342.660248 
	C237.077484,342.660248 241.436478,342.660248 245.795471,342.660248 
	C245.890915,342.052246 245.986359,341.444244 246.081802,340.836243 
	C242.740479,340.451691 239.399170,340.067139 235.930756,339.667969 
	C235.930756,337.192383 235.930756,334.781738 235.930756,332.420563 
	C239.098389,331.921631 242.063629,331.454590 245.028870,330.987549 
	C244.923843,330.386108 244.818817,329.784637 244.713791,329.183197 
	C241.818527,329.045959 238.923264,328.908722 235.841690,328.762634 
	C235.841690,326.194122 235.841690,323.904175 236.569534,320.995209 
M282.319366,324.989685 
	C280.978149,324.371887 279.694397,323.496490 278.285461,323.182068 
	C272.937317,321.988617 268.218750,324.943481 266.852631,330.160156 
	C265.334442,335.957855 268.144226,341.652710 273.188446,343.001373 
	C278.796661,344.500824 282.911774,342.335114 285.067352,335.748871 
	C283.036743,336.985779 281.715637,337.591156 280.635162,338.486816 
	C277.640411,340.969482 274.621643,341.245728 271.785797,338.495850 
	C269.174194,335.963379 269.263245,329.845917 271.947174,327.569427 
	C274.720154,325.217468 277.621246,325.300903 280.449860,327.788971 
	C281.569580,328.773956 282.968414,329.441620 284.240173,330.253754 
	C284.565674,329.869629 284.891174,329.485474 285.216675,329.101349 
	C284.444061,327.898163 283.671448,326.695007 282.319366,324.989685 
M259.949677,325.469757 
	C258.926086,326.920868 257.902496,328.371948 256.982880,329.675629 
	C253.786942,328.084198 254.305878,322.287384 247.983383,323.808502 
	C255.403244,330.135437 255.023544,336.418854 248.151260,342.565765 
	C254.116150,344.137451 253.220947,337.989349 256.349884,336.960815 
	C261.796051,342.738129 261.796051,342.738129 264.306091,342.610870 
	C262.470673,339.405640 259.303070,336.288544 259.277283,333.145660 
	C259.251801,330.040894 262.401917,326.910034 264.158936,323.790619 
	C263.962036,323.513123 263.765137,323.235626 263.568237,322.958130 
	C262.456573,323.563782 261.344910,324.169464 259.949677,325.469757 
M191.180161,338.927460 
	C191.180161,334.817444 191.180161,330.707428 191.180161,326.422974 
	C192.864059,326.150299 194.407745,325.900299 195.951431,325.650299 
	C196.062576,325.235107 196.173721,324.819916 196.284851,324.404724 
	C194.620880,323.785828 192.956894,323.166931 191.671188,322.688721 
	C190.829529,321.112640 190.074295,319.698395 189.319077,318.284149 
	C188.616302,319.489563 187.994598,320.753021 187.185989,321.882690 
	C186.493973,322.849457 185.587738,323.662933 184.610687,324.723999 
	C189.114105,327.764313 186.947174,332.134583 187.184113,335.909576 
	C187.594879,342.454071 189.404831,343.948975 196.301956,341.284424 
	C194.774521,340.738312 193.247086,340.192169 191.180161,338.927460 
M128.979874,337.353638 
	C128.979874,339.161682 128.979874,340.969727 128.979874,342.777771 
	C129.420593,342.996002 129.861313,343.214264 130.302017,343.432495 
	C130.957535,342.458649 132.015625,341.548279 132.181427,340.497162 
	C132.488617,338.549805 132.275009,336.520142 132.276642,334.524750 
	C132.279739,330.727325 132.371643,327.065552 137.435303,326.327118 
	C138.040970,326.238800 138.420074,324.596924 138.775040,323.921051 
	C135.250992,323.921051 132.334839,323.921051 128.979797,323.921051 
	C128.979797,327.813538 128.979797,332.106232 128.979874,337.353638 
z"/>
<path fill="#6523EA" opacity="1.000000" stroke="none" 
	d="
M165.241776,168.935883 
	C165.181778,157.543091 164.727188,146.130020 165.310638,134.770279 
	C165.478073,131.510651 168.644669,128.405075 171.084900,125.137070 
	C172.157455,125.036591 172.581223,125.027908 173.075623,125.371246 
	C179.849197,128.794235 186.515350,131.948776 193.263123,134.917892 
	C205.357925,140.239777 217.422546,145.646896 229.675171,150.583069 
	C233.194550,152.000931 236.642380,155.487564 241.429901,152.992722 
	C242.176987,154.406845 242.590729,155.703735 243.002655,157.437210 
	C242.977859,159.910461 242.954895,161.947128 242.577438,163.945251 
	C239.660065,162.712158 237.128326,161.444611 234.529327,160.334610 
	C214.516815,151.787247 194.462692,143.336548 174.484955,134.708893 
	C167.339447,131.623032 166.029404,132.298904 165.997879,140.407257 
	C166.647736,143.222137 167.302521,145.617081 168.006699,148.362152 
	C169.375748,151.143936 170.695419,153.575562 172.140503,156.302338 
	C172.518524,157.402557 172.771133,158.207642 172.609863,159.009766 
	C170.304794,158.870697 168.413589,158.734619 165.978973,158.559418 
	C165.978973,162.178024 165.978973,165.561172 165.794617,168.947571 
	C165.610260,168.950836 165.241776,168.935883 165.241776,168.935883 
z"/>
<path fill="#A67FF4" opacity="1.000000" stroke="none" 
	d="
M335.806519,280.998505 
	C336.808350,286.927551 334.679169,290.277740 327.341187,293.386414 
	C325.270599,290.461609 323.808075,287.686493 321.800201,285.387756 
	C315.624146,278.317108 309.418945,271.254089 302.875092,264.528656 
	C298.214569,259.738861 292.989258,255.498611 288.012543,250.762573 
	C288.008911,250.345047 288.008728,250.178101 288.303406,249.852554 
	C290.395172,247.127167 292.192078,244.560394 294.109497,241.782272 
	C294.434448,241.306351 294.694122,241.117920 295.308228,241.156219 
	C297.432617,242.732574 299.514771,243.927185 301.040375,245.622589 
	C309.345337,254.851822 317.314636,264.392273 325.841156,273.407837 
	C328.641022,276.368286 330.988464,280.468170 335.806519,280.998505 
z"/>
<path fill="#9D72F3" opacity="1.000000" stroke="none" 
	d="
M335.887360,280.573181 
	C330.988464,280.468170 328.641022,276.368286 325.841156,273.407837 
	C317.314636,264.392273 309.345337,254.851822 301.040375,245.622589 
	C299.514771,243.927185 297.432617,242.732574 295.344940,240.807007 
	C296.059662,238.207291 297.036804,236.107391 298.187988,233.756042 
	C299.234894,232.662949 300.107727,231.821274 301.349365,230.990906 
	C302.872345,231.781677 304.224823,232.376328 305.150024,233.369156 
	C314.250122,243.134109 323.237000,253.005020 332.397766,262.712128 
	C333.253540,263.618958 335.081207,263.608673 336.457611,264.024200 
	C336.294464,269.398743 336.131317,274.773315 335.887360,280.573181 
z"/>
<path fill="#5A1DD3" opacity="1.000000" stroke="none" 
	d="
M236.070450,123.035995 
	C237.210663,122.889839 238.350800,122.616951 239.491119,122.616112 
	C266.745087,122.595924 293.999146,122.566483 321.253021,122.627991 
	C331.779266,122.651741 336.801575,127.750534 336.815094,138.221558 
	C336.831390,150.850815 336.777802,163.480179 336.292725,176.417191 
	C335.552765,173.147079 335.274567,169.569260 334.999817,165.528580 
	C335.002258,162.743042 335.374512,160.341919 334.906891,158.117355 
	C334.307465,155.265945 333.699463,151.994934 331.926300,149.888702 
	C326.019318,142.872040 319.177338,136.619568 313.520233,129.424377 
	C310.290253,125.316231 307.159271,123.046959 301.531982,124.027069 
	C292.377106,124.024025 283.690918,124.027519 274.543671,124.022652 
	C270.393707,124.015167 266.704803,124.016045 262.554688,124.009369 
	C258.404053,123.996902 254.714584,123.991974 250.568726,123.979828 
	C247.082214,123.968933 244.052094,123.965263 240.640106,123.952652 
	C238.862320,123.641129 237.466385,123.338562 236.070450,123.035995 
z"/>
<path fill="#7B41EE" opacity="1.000000" stroke="none" 
	d="
M235.647522,122.963058 
	C237.466385,123.338562 238.862320,123.641129 240.669998,124.305428 
	C250.007019,136.352539 258.951691,148.023178 267.852661,159.727066 
	C278.961975,174.334656 289.960663,189.027481 301.202545,203.532043 
	C302.939484,205.773117 305.720612,207.204895 308.009308,209.380035 
	C307.339600,211.503708 306.679413,213.258301 305.672791,214.971130 
	C303.273071,213.059845 300.929626,211.419800 299.229980,209.270615 
	C296.165894,205.396088 293.654449,201.086472 290.617126,197.188461 
	C280.165863,183.775635 269.523254,170.511871 259.077606,157.094727 
	C251.167206,146.934067 243.505096,136.579819 235.564285,126.443512 
	C234.597595,125.209557 232.585052,124.794922 231.028381,124.005974 
	C230.999527,124.011368 230.941895,124.022469 230.958588,123.783791 
	C230.975281,123.545113 230.982422,123.066643 230.982422,123.066635 
	C232.396484,123.007797 233.810547,122.948959 235.647522,122.963058 
z"/>
<path fill="#9465F1" opacity="1.000000" stroke="none" 
	d="
M336.578735,263.569855 
	C335.081207,263.608673 333.253540,263.618958 332.397766,262.712128 
	C323.237000,253.005020 314.250122,243.134109 305.150024,233.369156 
	C304.224823,232.376328 302.872345,231.781677 301.353149,230.660065 
	C300.987823,229.876099 300.987457,229.434311 301.132874,228.676865 
	C302.510376,225.904572 303.742096,223.447937 304.985199,220.745483 
	C304.996582,220.499649 305.012299,220.007706 305.393127,220.005981 
	C307.254547,220.577682 309.155426,220.749725 310.148071,221.789154 
	C316.970764,228.933456 323.532196,236.327026 330.346802,243.479294 
	C332.074677,245.292770 334.413910,246.523743 336.472229,248.022354 
	C336.548096,253.053406 336.623993,258.084473 336.578735,263.569855 
z"/>
<path fill="#AE8AF5" opacity="1.000000" stroke="none" 
	d="
M288.015991,251.013138 
	C292.989258,255.498611 298.214569,259.738861 302.875092,264.528656 
	C309.418945,271.254089 315.624146,278.317108 321.800201,285.387756 
	C323.808075,287.686493 325.270599,290.461609 326.997253,293.367554 
	C323.639648,293.861053 320.267365,294.005890 316.381409,293.702423 
	C314.822845,292.521484 313.598053,291.952271 312.760834,291.030884 
	C304.526031,281.967773 296.450195,272.757843 288.095184,263.808075 
	C286.196167,261.773895 283.393280,260.583527 281.155884,258.704956 
	C283.542206,255.941101 285.779114,253.477112 288.015991,251.013138 
z"/>
<path fill="#B695F6" opacity="1.000000" stroke="none" 
	d="
M281.006409,259.004791 
	C283.393280,260.583527 286.196167,261.773895 288.095184,263.808075 
	C296.450195,272.757843 304.526031,281.967773 312.760834,291.030884 
	C313.598053,291.952271 314.822845,292.521484 315.934204,293.590820 
	C311.964264,293.999695 307.927948,294.071899 303.181000,293.783081 
	C300.813110,292.607727 298.694122,292.196075 297.574677,290.912628 
	C291.098846,283.488007 284.933197,275.792664 278.450317,268.374451 
	C277.580566,267.379211 275.512146,267.431549 274.108795,266.742126 
	C274.480743,265.993469 274.742706,265.501495 275.300964,264.858521 
	C277.069489,262.824768 278.541656,260.942047 280.262146,259.048767 
	C280.510468,259.038208 281.006409,259.004791 281.006409,259.004791 
z"/>
<path fill="#6C2CEC" opacity="1.000000" stroke="none" 
	d="
M334.996338,165.991455 
	C335.274567,169.569260 335.552765,173.147079 336.173706,176.872299 
	C336.542969,179.091995 336.569458,181.164276 336.058533,183.613968 
	C334.067535,183.437927 332.202240,183.278427 331.231201,182.263397 
	C326.820923,177.653336 322.797272,172.670975 318.345306,168.104507 
	C316.642242,166.357635 314.166931,165.363617 312.027832,163.585297 
	C311.006622,156.762466 310.001129,150.380844 309.378784,144.000092 
	C311.570007,144.922974 313.802338,145.445770 315.111633,146.837173 
	C320.360291,152.415039 325.238678,158.340591 330.462006,163.943649 
	C331.505249,165.062729 333.461212,165.330917 334.996338,165.991455 
z"/>
<path fill="#8C5AF1" opacity="1.000000" stroke="none" 
	d="
M336.588257,247.567612 
	C334.413910,246.523743 332.074677,245.292770 330.346802,243.479294 
	C323.532196,236.327026 316.970764,228.933456 310.148071,221.789154 
	C309.155426,220.749725 307.254547,220.577682 305.429810,219.640823 
	C305.396851,217.855881 305.708038,216.434387 306.019226,215.012894 
	C306.679413,213.258301 307.339600,211.503708 308.222473,209.264771 
	C308.710846,208.578506 308.899445,208.320282 309.359680,208.044479 
	C310.555206,208.582077 311.561829,208.925171 312.223938,209.604156 
	C318.197815,215.730209 324.045227,221.981003 330.081604,228.043961 
	C331.969269,229.939957 334.318939,231.376007 336.457092,233.022614 
	C336.539520,237.719360 336.621918,242.416122 336.588257,247.567612 
z"/>
<path fill="#D7C6F9" opacity="1.000000" stroke="none" 
	d="
M252.017166,293.946716 
	C241.649658,294.016663 231.282166,294.086639 220.414459,293.707520 
	C214.609131,286.504791 209.304001,279.751160 204.153625,272.692261 
	C209.997696,266.354767 211.855789,266.525269 216.407410,272.950409 
	C220.209900,278.318054 224.321701,283.465790 228.252762,288.743469 
	C231.095520,292.560028 234.340240,292.768280 238.352051,289.958160 
	C240.472382,288.950012 242.239899,287.981262 244.370819,286.969055 
	C246.822815,286.279663 248.911407,285.633728 251.136108,285.300201 
	C252.982925,287.844482 254.693634,290.076355 256.421509,292.330658 
	C254.916931,292.882721 253.467056,293.414703 252.017166,293.946716 
z"/>
<path fill="#7539EE" opacity="1.000000" stroke="none" 
	d="
M312.043549,164.026520 
	C314.166931,165.363617 316.642242,166.357635 318.345306,168.104507 
	C322.797272,172.670975 326.820923,177.653336 331.231201,182.263397 
	C332.202240,183.278427 334.067535,183.437927 335.934448,183.986938 
	C336.461060,189.378601 336.574280,194.774689 336.204529,200.587418 
	C333.811951,199.994843 331.505798,199.374023 330.066315,197.904388 
	C325.547089,193.290497 321.430481,188.284225 316.970245,183.608978 
	C316.074829,182.670380 314.352966,182.520172 313.005585,181.547623 
	C312.992981,177.722214 312.986969,174.355637 312.936951,170.601807 
	C312.609863,168.151855 312.326691,166.089203 312.043549,164.026520 
z"/>
<path fill="#7D44EF" opacity="1.000000" stroke="none" 
	d="
M313.012146,182.006470 
	C314.352966,182.520172 316.074829,182.670380 316.970245,183.608978 
	C321.430481,188.284225 325.547089,193.290497 330.066315,197.904388 
	C331.505798,199.374023 333.811951,199.994843 336.083984,200.999512 
	C336.529999,206.693466 336.613586,212.391968 336.255737,218.531830 
	C331.491699,214.549332 327.277039,210.012711 322.812103,205.737457 
	C319.270233,202.346039 317.225342,196.820129 311.009277,196.593811 
	C311.332581,193.450851 311.660675,190.721878 312.001953,187.610031 
	C312.347473,185.486938 312.679810,183.746704 313.012146,182.006470 
z"/>
<path fill="#854FF0" opacity="1.000000" stroke="none" 
	d="
M311.014099,197.007782 
	C317.225342,196.820129 319.270233,202.346039 322.812103,205.737457 
	C327.277039,210.012711 331.491699,214.549332 336.138489,218.985062 
	C336.540039,223.370331 336.617462,227.743713 336.575989,232.569855 
	C334.318939,231.376007 331.969269,229.939957 330.081604,228.043961 
	C324.045227,221.981003 318.197815,215.730209 312.223938,209.604156 
	C311.561829,208.925171 310.555206,208.582077 309.361572,207.659348 
	C309.664062,204.817001 310.313385,202.398499 310.969421,199.608368 
	C310.988800,198.493759 311.001465,197.750778 311.014099,197.007782 
z"/>
<path fill="#DFD1FA" opacity="1.000000" stroke="none" 
	d="
M203.998856,272.997559 
	C209.304001,279.751160 214.609131,286.504791 219.955444,293.604401 
	C216.628784,294.017670 213.260941,294.084961 209.403641,293.703308 
	C206.091125,289.198730 203.293472,285.125122 200.434616,281.094879 
	C198.938843,278.986206 197.173233,278.396881 195.037552,280.353180 
	C189.910202,285.049744 184.481842,283.197601 179.051758,281.026154 
	C177.371323,280.354126 175.691833,279.679749 174.150360,278.710907 
	C174.858719,277.276489 175.428619,276.137634 176.254364,274.788879 
	C176.680801,273.724487 176.851395,272.869995 177.432281,272.011230 
	C182.425812,273.607391 187.094666,275.002594 191.567200,276.868378 
	C195.690353,278.588440 198.776672,278.022461 201.323730,273.990417 
	C202.427475,273.637909 203.213165,273.317719 203.998856,272.997559 
z"/>
<path fill="#E5DBFA" opacity="1.000000" stroke="none" 
	d="
M174.011902,279.006470 
	C175.691833,279.679749 177.371323,280.354126 179.051758,281.026154 
	C184.481842,283.197601 189.910202,285.049744 195.037552,280.353180 
	C197.173233,278.396881 198.938843,278.986206 200.434616,281.094879 
	C203.293472,285.125122 206.091125,289.198730 208.955261,293.599548 
	C204.626297,294.017273 200.256271,294.089752 195.396179,293.713745 
	C194.030746,292.107483 193.114944,290.977783 192.287491,289.786682 
	C189.639801,285.975342 186.803406,285.613373 182.919098,288.410675 
	C180.077118,290.457367 176.572449,291.583832 173.363159,293.120483 
	C171.591202,292.017670 169.819244,290.914856 168.115677,289.178711 
	C170.126694,285.365753 172.069305,282.186127 174.011902,279.006470 
z"/>
<path fill="#BDA1F7" opacity="1.000000" stroke="none" 
	d="
M273.998779,266.998779 
	C275.512146,267.431549 277.580566,267.379211 278.450317,268.374451 
	C284.933197,275.792664 291.098846,283.488007 297.574677,290.912628 
	C298.694122,292.196075 300.813110,292.607727 302.727905,293.673889 
	C298.621552,293.994324 294.257690,294.062988 289.195862,293.779480 
	C287.339600,292.914215 285.865601,292.694214 285.073517,291.841064 
	C279.305664,285.628754 273.674957,279.289062 268.109863,272.733276 
	C268.479645,271.985474 268.740479,271.493958 269.288910,270.857635 
	C271.050598,269.474823 272.524689,268.236816 273.998779,266.998779 
z"/>
<path fill="#E6E6E6" opacity="1.000000" stroke="none" 
	d="
M373.658142,341.228241 
	C368.115265,344.390747 363.562042,343.791321 360.518677,339.765381 
	C357.557770,335.848572 357.808228,329.468689 361.062195,325.921387 
	C364.532776,322.137970 369.105011,322.042999 374.238861,325.491852 
	C375.146332,324.694763 375.998779,323.946014 376.851196,323.197296 
	C377.429871,324.007355 378.498230,324.810669 378.509521,325.628540 
	C378.596588,331.937286 378.750824,338.266693 378.339020,344.553955 
	C378.007477,349.615723 374.408905,352.582153 369.400909,352.829956 
	C364.437439,353.075592 361.168671,350.732819 359.761810,344.820312 
	C361.900299,346.320038 363.099701,347.759308 364.521545,348.029907 
	C367.222382,348.543915 370.554810,349.316376 372.645050,348.179657 
	C373.995026,347.445557 373.602600,343.507355 373.658142,341.228241 
M371.617645,339.499634 
	C375.458710,335.862366 376.188873,331.290497 373.245331,328.194519 
	C370.731415,325.550385 367.731293,325.156494 364.693054,327.271667 
	C361.663727,329.380585 360.682709,334.843079 363.484924,337.460724 
	C365.204773,339.067322 368.376923,339.119171 371.617645,339.499634 
z"/>
<path fill="#E2E2E2" opacity="1.000000" stroke="none" 
	d="
M166.249084,325.065979 
	C170.517044,322.623718 174.696503,321.689606 178.853317,325.010101 
	C182.540405,327.955414 183.081711,332.019623 182.028870,336.319092 
	C180.352539,343.164612 173.983246,345.107880 165.942825,340.794098 
	C165.942825,342.812408 165.942825,344.540192 165.942825,346.267975 
	C165.942825,348.081909 165.942825,349.895874 165.942825,351.709808 
	C165.532806,352.025665 165.122787,352.341492 164.712769,352.657318 
	C163.906052,351.703888 162.422333,350.766418 162.399399,349.794464 
	C162.211182,341.814697 162.191742,333.826477 162.345337,325.845154 
	C162.408554,322.560211 163.871521,322.093109 166.249084,325.065979 
M173.273529,340.163361 
	C178.182098,338.445892 180.181076,334.585480 178.403961,330.255402 
	C176.905899,326.605255 173.236420,325.027527 169.864456,326.583679 
	C166.239746,328.256531 164.520599,333.213165 166.923416,336.789764 
	C168.029785,338.436615 170.568375,339.121307 173.273529,340.163361 
z"/>
<path fill="#C5ACF8" opacity="1.000000" stroke="none" 
	d="
M268.000946,272.989594 
	C273.674957,279.289062 279.305664,285.628754 285.073517,291.841064 
	C285.865601,292.694214 287.339600,292.914215 288.740784,293.673157 
	C284.288269,293.995605 279.592834,294.072235 274.198730,293.791504 
	C272.171936,292.626556 270.630066,292.035187 269.554779,290.971954 
	C265.943207,287.400848 262.497925,283.661530 258.992004,279.656830 
	C258.996674,278.887177 258.998383,278.447235 259.348328,277.964355 
	C262.464691,276.277435 265.232819,274.633514 268.000946,272.989594 
z"/>
<path fill="#8C5AF1" opacity="1.000000" stroke="none" 
	d="
M165.222855,201.020401 
	C165.175873,197.651016 165.128891,194.281647 165.452286,190.630646 
	C168.492355,191.866547 171.097794,193.514206 173.846512,194.871689 
	C178.189133,197.016357 182.627853,198.966385 187.272491,200.998352 
	C187.519089,200.997910 188.012878,201.003860 188.011871,201.436371 
	C188.343719,204.914322 188.676559,207.959793 189.002991,211.251785 
	C188.996567,211.498322 188.981979,211.991333 188.634064,212.031937 
	C186.317276,211.683792 184.118835,211.727997 182.421265,210.827698 
	C176.593781,207.737137 170.941757,204.315704 165.222855,201.020401 
z"/>
<path fill="#9465F1" opacity="1.000000" stroke="none" 
	d="
M165.147736,201.460297 
	C170.941757,204.315704 176.593781,207.737137 182.421265,210.827698 
	C184.118835,211.727997 186.317276,211.683792 188.643600,212.477615 
	C189.009033,215.259445 189.016983,217.636215 189.016724,220.410110 
	C188.996841,221.866531 188.985199,222.925797 188.616196,223.947601 
	C182.209763,220.629837 176.074036,217.495514 170.160812,213.986267 
	C168.217300,212.832870 166.850250,210.708160 165.219589,209.027603 
	C165.170609,206.651794 165.121628,204.275986 165.147736,201.460297 
z"/>
<path fill="#7F46EF" opacity="1.000000" stroke="none" 
	d="
M187.025909,200.998779 
	C182.627853,198.966385 178.189133,197.016357 173.846512,194.871689 
	C171.097794,193.514206 168.492355,191.866547 165.527542,190.179703 
	C165.182999,187.281143 165.133575,184.551910 165.463562,181.225739 
	C167.777542,181.122925 169.797745,181.406677 171.629669,182.152771 
	C176.120132,183.981598 180.523758,186.023682 184.999451,188.277512 
	C185.355759,189.050049 185.674911,189.525040 185.996124,190.431549 
	C186.340759,194.241638 186.683334,197.620209 187.025909,200.998779 
z"/>
<path fill="#EBEBEB" opacity="1.000000" stroke="none" 
	d="
M316.368469,324.037903 
	C320.683228,321.962219 324.127106,323.132050 327.141785,325.538788 
	C328.027710,324.716827 328.833771,323.968964 329.639862,323.221130 
	C330.158112,324.055847 331.105103,324.880341 331.125305,325.726929 
	C331.259247,331.345795 331.194611,336.969360 331.194611,343.571075 
	C329.518188,342.695526 328.396912,342.109894 326.883423,341.319427 
	C320.433167,344.465240 315.770813,343.854218 312.796661,339.042236 
	C309.634308,333.925903 310.812531,328.458282 316.368469,324.037903 
M318.997894,339.938202 
	C322.583801,340.669220 326.155701,340.177338 326.926575,336.246033 
	C327.448578,333.583923 326.846069,329.865173 325.209045,327.899323 
	C324.048920,326.506195 319.254822,326.119934 317.988281,327.310791 
	C316.115021,329.072083 315.486145,332.591919 315.231323,335.443787 
	C315.115356,336.741272 317.163513,338.232147 318.997894,339.938202 
z"/>
<path fill="#9D72F3" opacity="1.000000" stroke="none" 
	d="
M165.143814,209.486786 
	C166.850250,210.708160 168.217300,212.832870 170.160812,213.986267 
	C176.074036,217.495514 182.209763,220.629837 188.626617,224.377426 
	C188.994492,226.561935 188.994583,228.279129 188.987000,230.345932 
	C188.644485,231.792343 188.309692,232.889145 187.627197,233.948776 
	C181.397797,230.310410 175.583801,226.588043 169.568039,223.226822 
	C168.560547,222.663925 166.678146,223.666962 165.200012,223.946411 
	C165.156021,219.279602 165.112030,214.612793 165.143814,209.486786 
z"/>
<path fill="#EBEBEB" opacity="1.000000" stroke="none" 
	d="
M101.459763,336.308044 
	C99.098953,330.079651 99.893265,324.725006 104.755348,320.558807 
	C108.777992,317.111938 113.587578,316.717590 118.275993,318.996704 
	C120.540428,320.097473 122.347282,322.139496 124.361313,323.755371 
	C124.071152,324.335266 123.780991,324.915131 123.490829,325.494995 
	C122.064995,324.857513 120.391014,324.507874 119.257828,323.530945 
	C115.146812,319.986816 109.705803,319.813843 106.322418,323.363495 
	C102.955505,326.895874 102.926498,334.027283 106.264687,337.563324 
	C109.636009,341.134460 115.140778,341.031128 119.195534,337.513153 
	C120.338272,336.521729 121.910774,336.025635 123.602180,335.845184 
	C121.989037,340.527130 118.732033,342.715302 114.063477,343.137177 
	C108.474480,343.642212 104.390816,341.483093 101.459763,336.308044 
z"/>
<path fill="#EBEBEB" opacity="1.000000" stroke="none" 
	d="
M398.460541,334.531372 
	C394.214020,334.533112 390.406769,334.533112 384.987274,334.533112 
	C386.960083,336.924438 387.908173,339.102936 389.452118,339.675964 
	C391.247559,340.342346 393.663971,339.941315 395.625732,339.368896 
	C397.305420,338.878876 398.723785,337.493134 400.539032,336.951935 
	C398.280975,342.617065 393.789398,344.606720 388.696136,342.867767 
	C384.471313,341.425323 381.861206,336.576996 382.584442,331.515350 
	C383.334900,326.263397 386.807007,323.113037 391.969696,322.999847 
	C396.865173,322.892517 400.679443,325.953247 401.597839,330.660065 
	C402.040680,332.930023 401.961426,334.745636 398.460541,334.531372 
M397.904755,329.957703 
	C396.630951,326.608887 393.883362,325.214478 390.787994,326.206146 
	C388.785370,326.847748 387.299713,329.102966 385.582397,330.635101 
	C385.923065,331.144501 386.263763,331.653900 386.604462,332.163330 
	C390.386383,331.705292 394.168304,331.247253 397.904755,329.957703 
z"/>
<path fill="#E2E2E2" opacity="1.000000" stroke="none" 
	d="
M303.786224,334.950043 
	C303.731873,333.162842 304.197723,331.394897 303.521484,330.606598 
	C301.991882,328.823486 299.819031,326.267181 298.057007,326.378906 
	C296.274017,326.491974 293.641205,329.217010 293.212646,331.194824 
	C292.427124,334.820099 292.988831,338.737274 292.988831,342.532745 
	C292.527008,342.821960 292.065155,343.111145 291.603333,343.400330 
	C290.831543,342.417084 289.417847,341.451050 289.390930,340.447784 
	C289.199402,333.314728 289.218658,326.172363 289.383972,319.037903 
	C289.404907,318.133881 290.664185,317.258545 291.349701,316.369904 
	C291.880554,317.219757 292.748474,318.023987 292.870880,318.929077 
	C293.112793,320.717926 292.942261,322.562531 292.942261,324.863983 
	C294.319305,324.282043 295.376892,323.723572 296.500092,323.379333 
	C301.964050,321.704956 306.661438,324.782593 307.015564,330.497864 
	C307.269562,334.597382 307.064972,338.725281 307.064972,343.448914 
	C301.768555,341.871185 304.769928,337.875763 303.786224,334.950043 
z"/>
<path fill="#AE8AF5" opacity="1.000000" stroke="none" 
	d="
M165.193192,240.014496 
	C165.146988,235.991623 165.100784,231.968750 165.352448,227.753738 
	C166.022018,228.618347 166.084717,230.250900 166.813583,230.642044 
	C173.475769,234.217163 180.253799,237.576477 186.999481,241.397827 
	C186.670029,243.866013 186.339096,245.935135 185.896851,248.261200 
	C185.518021,249.008972 185.250473,249.499847 184.607986,249.986267 
	C182.559052,249.350189 180.782822,248.904755 179.230194,248.052139 
	C174.504868,245.457291 169.865829,242.705307 165.193192,240.014496 
z"/>
<path fill="#A67FF4" opacity="1.000000" stroke="none" 
	d="
M186.998016,240.998779 
	C180.253799,237.576477 173.475769,234.217163 166.813583,230.642044 
	C166.084717,230.250900 166.022018,228.618347 165.427826,227.298752 
	C165.154434,226.262009 165.103546,225.488129 165.126343,224.330322 
	C166.678146,223.666962 168.560547,222.663925 169.568039,223.226822 
	C175.583801,226.588043 181.397797,230.310410 187.637146,234.377533 
	C187.988480,236.556473 187.982147,238.269470 187.867386,240.199142 
	C187.562485,240.684769 187.308838,240.879089 186.998016,240.998779 
z"/>
<path fill="#7539EE" opacity="1.000000" stroke="none" 
	d="
M184.962311,187.979965 
	C180.523758,186.023682 176.120132,183.981598 171.629669,182.152771 
	C169.797745,181.406677 167.777542,181.122925 165.539383,180.774689 
	C165.187668,177.234131 165.139572,173.547714 165.166626,169.398590 
	C165.241776,168.935883 165.610260,168.950836 166.151917,169.005463 
	C169.400040,170.507538 172.023285,172.156494 174.846024,173.322479 
	C176.396622,173.963013 178.283279,173.790024 180.270187,174.197586 
	C181.336472,175.940536 182.151001,177.469742 182.976440,179.399017 
	C183.645691,182.526031 184.304001,185.253006 184.962311,187.979965 
z"/>
<path fill="#EBEBEB" opacity="1.000000" stroke="none" 
	d="
M218.373169,333.060211 
	C217.257248,341.001953 212.675873,344.471100 205.737411,343.011230 
	C200.293732,341.865845 197.251602,336.124908 198.900208,330.108551 
	C200.151627,325.541718 204.098663,322.766937 209.002182,323.006866 
	C214.283340,323.265289 217.284439,326.362885 218.373169,333.060211 
M202.118591,335.043457 
	C202.915298,338.311371 204.897079,340.686493 208.321915,340.073090 
	C210.422012,339.696960 213.403412,338.085571 213.906540,336.405334 
	C214.643906,333.942902 214.254501,330.469116 212.923737,328.297363 
	C212.030319,326.839386 208.489655,326.016510 206.465225,326.451965 
	C202.697632,327.262329 201.728928,330.609070 202.118591,335.043457 
z"/>
<path fill="#E6E6E6" opacity="1.000000" stroke="none" 
	d="
M149.308105,337.208008 
	C151.294327,333.807007 152.988602,329.987152 154.890625,326.273651 
	C155.568710,324.949738 156.750305,323.883759 158.469894,323.203491 
	C154.958008,333.367401 152.276382,343.782684 146.546249,352.755798 
	C145.647125,352.564941 144.748001,352.374084 143.848877,352.183228 
	C152.164520,341.300812 142.416855,333.240509 140.580627,323.944153 
	C144.408920,322.973450 142.655838,320.342590 149.308105,337.208008 
z"/>
<path fill="#F4F4F4" opacity="1.000000" stroke="none" 
	d="
M336.735626,334.924072 
	C336.735535,330.839081 336.735535,327.224884 336.735535,324.341400 
	C340.095215,323.840118 342.803406,323.349884 345.532410,323.048065 
	C350.201752,322.531738 353.716034,325.223053 354.139893,329.928101 
	C354.466888,333.557434 354.443329,337.238983 354.248810,340.879883 
	C354.201569,341.763550 352.867218,342.578430 352.124725,343.424957 
	C351.751343,343.235199 351.377930,343.045441 351.004547,342.855682 
	C351.004547,339.236816 351.018524,335.617920 351.000519,331.999146 
	C350.983337,328.548584 349.573181,326.139801 345.843414,326.010254 
	C341.843597,325.871368 340.211578,328.400513 340.059692,332.002686 
	C339.913269,335.475128 340.028015,338.958618 340.028015,342.424408 
	C336.745697,342.600311 336.745697,342.600311 336.735626,334.924072 
z"/>
<path fill="#E2E2E2" opacity="1.000000" stroke="none" 
	d="
M236.205612,321.304718 
	C235.841690,323.904175 235.841690,326.194122 235.841690,328.762634 
	C238.923264,328.908722 241.818527,329.045959 244.713791,329.183197 
	C244.818817,329.784637 244.923843,330.386108 245.028870,330.987549 
	C242.063629,331.454590 239.098389,331.921631 235.930756,332.420563 
	C235.930756,334.781738 235.930756,337.192383 235.930756,339.667969 
	C239.399170,340.067139 242.740479,340.451691 246.081802,340.836243 
	C245.986359,341.444244 245.890915,342.052246 245.795471,342.660248 
	C241.436478,342.660248 237.077484,342.660248 232.385895,342.660248 
	C232.385895,334.791290 232.385895,326.741333 232.385895,318.318176 
	C236.745026,318.318176 241.245651,318.318176 246.813873,318.318176 
	C243.504593,322.433044 239.624268,320.160278 236.205612,321.304718 
z"/>
<path fill="#B695F6" opacity="1.000000" stroke="none" 
	d="
M165.119171,240.463654 
	C169.865829,242.705307 174.504868,245.457291 179.230194,248.052139 
	C180.782822,248.904755 182.559052,249.350189 184.614258,250.385284 
	C184.653946,252.849777 184.312393,254.910782 183.734924,257.135681 
	C183.005203,257.870148 182.511414,258.440735 181.699570,258.867249 
	C175.983871,255.819199 170.586212,252.915253 165.188553,250.011322 
	C165.140747,246.978485 165.092957,243.945633 165.119171,240.463654 
z"/>
<path fill="#CBB5F9" opacity="1.000000" stroke="none" 
	d="
M258.989014,279.986572 
	C262.497925,283.661530 265.943207,287.400848 269.554779,290.971954 
	C270.630066,292.035187 272.171936,292.626556 273.742493,293.683655 
	C266.966156,294.010498 259.947327,294.087860 252.472824,294.055969 
	C253.467056,293.414703 254.916931,292.882721 256.421509,292.330658 
	C254.693634,290.076355 252.982925,287.844482 251.135880,285.046265 
	C251.001221,284.310547 251.002930,284.141144 251.341385,283.920288 
	C254.115097,282.574738 256.552063,281.280670 258.989014,279.986572 
z"/>
<path fill="#E6E6E6" opacity="1.000000" stroke="none" 
	d="
M282.609131,325.240753 
	C283.671448,326.695007 284.444061,327.898163 285.216675,329.101349 
	C284.891174,329.485474 284.565674,329.869629 284.240173,330.253754 
	C282.968414,329.441620 281.569580,328.773956 280.449860,327.788971 
	C277.621246,325.300903 274.720154,325.217468 271.947174,327.569427 
	C269.263245,329.845917 269.174194,335.963379 271.785797,338.495850 
	C274.621643,341.245728 277.640411,340.969482 280.635162,338.486816 
	C281.715637,337.591156 283.036743,336.985779 285.067352,335.748871 
	C282.911774,342.335114 278.796661,344.500824 273.188446,343.001373 
	C268.144226,341.652710 265.334442,335.957855 266.852631,330.160156 
	C268.218750,324.943481 272.937317,321.988617 278.285461,323.182068 
	C279.694397,323.496490 280.978149,324.371887 282.609131,325.240753 
z"/>
<path fill="#E6E6E6" opacity="1.000000" stroke="none" 
	d="
M260.091492,325.122437 
	C261.344910,324.169464 262.456573,323.563782 263.568237,322.958130 
	C263.765137,323.235626 263.962036,323.513123 264.158936,323.790619 
	C262.401917,326.910034 259.251801,330.040894 259.277283,333.145660 
	C259.303070,336.288544 262.470673,339.405640 264.306091,342.610870 
	C261.796051,342.738129 261.796051,342.738129 256.349884,336.960815 
	C253.220947,337.989349 254.116150,344.137451 248.151260,342.565765 
	C255.023544,336.418854 255.403244,330.135437 247.983383,323.808502 
	C254.305878,322.287384 253.786942,328.084198 256.982880,329.675629 
	C257.902496,328.371948 258.926086,326.920868 260.091492,325.122437 
z"/>
<path fill="#BDA1F7" opacity="1.000000" stroke="none" 
	d="
M165.114334,250.445114 
	C170.586212,252.915253 175.983871,255.819199 181.695404,259.246216 
	C181.343567,261.848022 180.677856,263.926819 179.896393,266.219910 
	C179.578720,266.700195 179.322266,266.894012 178.692703,266.870544 
	C173.761276,263.787842 167.589386,262.967316 165.193283,257.019318 
	C165.142227,254.972519 165.091171,252.925705 165.114334,250.445114 
z"/>
<path fill="#E2E2E2" opacity="1.000000" stroke="none" 
	d="
M191.449921,339.286743 
	C193.247086,340.192169 194.774521,340.738312 196.301956,341.284424 
	C189.404831,343.948975 187.594879,342.454071 187.184113,335.909576 
	C186.947174,332.134583 189.114105,327.764313 184.610687,324.723999 
	C185.587738,323.662933 186.493973,322.849457 187.185989,321.882690 
	C187.994598,320.753021 188.616302,319.489563 189.319061,318.284149 
	C190.074295,319.698395 190.829529,321.112640 191.671188,322.688721 
	C192.956894,323.166931 194.620880,323.785828 196.284851,324.404724 
	C196.173721,324.819916 196.062576,325.235107 195.951431,325.650299 
	C194.407745,325.900299 192.864059,326.150299 191.180161,326.422974 
	C191.180161,330.707428 191.180161,334.817444 191.449921,339.286743 
z"/>
<path fill="#D0BBFA" opacity="1.000000" stroke="none" 
	d="
M174.150360,278.710907 
	C172.069305,282.186127 170.126694,285.365753 168.021057,288.864685 
	C166.903091,286.688751 165.328339,284.243317 165.123108,281.687897 
	C164.704483,276.475647 165.023499,271.204163 165.343781,265.770508 
	C166.995972,267.523773 168.062500,269.773407 169.767883,271.317383 
	C171.519791,272.903442 173.895691,273.800323 175.998520,274.998779 
	C175.428619,276.137634 174.858719,277.276489 174.150360,278.710907 
z"/>
<path fill="#CBB5F9" opacity="1.000000" stroke="none" 
	d="
M176.254364,274.788879 
	C173.895691,273.800323 171.519791,272.903442 169.767883,271.317383 
	C168.062500,269.773407 166.995972,267.523773 165.421143,265.309998 
	C165.144379,262.657532 165.095428,260.279053 165.119873,257.459961 
	C167.589386,262.967316 173.761276,263.787842 178.687347,267.219910 
	C178.341034,269.148071 177.681519,270.581787 177.022003,272.015503 
	C176.851395,272.869995 176.680801,273.724487 176.254364,274.788879 
z"/>
<path fill="#5A1DD3" opacity="1.000000" stroke="none" 
	d="
M230.613419,122.911087 
	C230.982422,123.066643 230.975281,123.545113 230.496246,123.779922 
	C213.106354,124.013405 196.195312,123.977142 179.284821,124.055283 
	C177.190125,124.064964 175.098206,124.683067 173.005005,125.019241 
	C172.581223,125.027908 172.157455,125.036591 171.416016,125.038757 
	C173.850677,124.229118 176.596191,122.759941 179.356415,122.731766 
	C196.317245,122.558693 213.281372,122.711304 230.613419,122.911087 
z"/>
<path fill="#F4F4F4" opacity="1.000000" stroke="none" 
	d="
M128.979828,336.876282 
	C128.979797,332.106232 128.979797,327.813538 128.979797,323.921051 
	C132.334839,323.921051 135.250992,323.921051 138.775040,323.921051 
	C138.420074,324.596924 138.040970,326.238800 137.435303,326.327118 
	C132.371643,327.065552 132.279739,330.727325 132.276642,334.524750 
	C132.275009,336.520142 132.488617,338.549805 132.181427,340.497162 
	C132.015625,341.548279 130.957535,342.458649 130.302017,343.432495 
	C129.861313,343.214264 129.420593,342.996002 128.979874,342.777771 
	C128.979874,340.969727 128.979874,339.161682 128.979828,336.876282 
z"/>
<path fill="#F4F4F4" opacity="1.000000" stroke="none" 
	d="
M173.696854,293.451050 
	C176.572449,291.583832 180.077118,290.457367 182.919098,288.410675 
	C186.803406,285.613373 189.639801,285.975342 192.287491,289.786682 
	C193.114944,290.977783 194.030746,292.107483 194.940704,293.606384 
	C187.993713,293.892151 181.012131,293.836884 173.696854,293.451050 
z"/>
<path fill="#5E19E9" opacity="1.000000" stroke="none" 
	d="
M173.075623,125.371246 
	C175.098206,124.683067 177.190125,124.064964 179.284821,124.055283 
	C196.195312,123.977142 213.106354,124.013405 230.479553,124.018600 
	C230.941895,124.022469 230.999527,124.011368 231.163239,124.320572 
	C233.897919,130.422348 236.468903,136.214920 239.072968,142.394882 
	C239.769531,146.146683 240.433044,149.511078 241.096542,152.875473 
	C236.642380,155.487564 233.194550,152.000931 229.675171,150.583069 
	C217.422546,145.646896 205.357925,140.239777 193.263123,134.917892 
	C186.515350,131.948776 179.849197,128.794235 173.075623,125.371246 
z"/>
<path fill="#844DF0" opacity="1.000000" stroke="none" 
	d="
M241.429901,152.992722 
	C240.433044,149.511078 239.769531,146.146683 239.414734,142.432739 
	C243.728806,146.566544 247.967255,150.865540 251.689926,155.572495 
	C258.950409,164.752701 265.875336,174.197433 273.025482,183.466049 
	C282.097717,195.226181 291.204926,206.960556 300.451721,218.582947 
	C301.427155,219.808929 303.441467,220.208389 304.973816,220.991302 
	C303.742096,223.447937 302.510376,225.904572 300.797424,228.624298 
	C293.201294,219.573669 286.117523,210.236023 278.964050,200.952072 
	C269.366425,188.496063 259.780365,176.029938 250.032272,163.692215 
	C248.046921,161.179428 245.365173,159.216843 243.004471,157.000610 
	C242.590729,155.703735 242.176987,154.406845 241.429901,152.992722 
z"/>
<path fill="#8954F1" opacity="1.000000" stroke="none" 
	d="
M243.002655,157.437210 
	C245.365173,159.216843 248.046921,161.179428 250.032272,163.692215 
	C259.780365,176.029938 269.366425,188.496063 278.964050,200.952072 
	C286.117523,210.236023 293.201294,219.573669 300.651611,228.939957 
	C300.987457,229.434311 300.987823,229.876099 300.984375,230.648743 
	C300.107727,231.821274 299.234894,232.662949 297.840942,233.715332 
	C296.267120,233.161407 294.964081,232.590668 294.199371,231.603043 
	C282.891693,216.999695 271.767395,202.252991 260.349396,187.737091 
	C255.517014,181.593582 250.102890,175.907669 244.715790,170.012177 
	C244.478409,170.010544 244.003876,169.996017 244.005386,169.603531 
	C243.648575,167.468628 243.290253,165.726196 242.931946,163.983780 
	C242.954895,161.947128 242.977859,159.910461 243.002655,157.437210 
z"/>
<path fill="#7D44EF" opacity="1.000000" stroke="none" 
	d="
M173.023743,159.012741 
	C172.771133,158.207642 172.518524,157.402557 172.558105,156.299316 
	C174.946060,156.354538 177.218765,156.301804 179.109665,157.125488 
	C194.291931,163.739105 209.336884,170.670929 224.565689,177.173248 
	C230.889816,179.873505 237.559479,181.764496 244.212601,184.361465 
	C244.225143,187.460785 244.097107,190.222137 243.606659,192.945587 
	C223.611481,184.657333 203.995819,176.365494 184.312943,168.236420 
	C182.759064,167.594650 180.737961,168.084198 178.641449,167.874542 
	C176.573837,164.804977 174.798782,161.908859 173.023743,159.012741 
z"/>
<path fill="#6C2CEC" opacity="1.000000" stroke="none" 
	d="
M242.577454,163.945251 
	C243.290253,165.726196 243.648575,167.468628 243.764175,169.868591 
	C242.409668,170.536377 241.150543,170.897812 240.208832,170.502701 
	C230.449371,166.407990 220.724518,162.229355 211.022537,157.999451 
	C197.240662,151.990784 183.499588,145.888199 169.692612,139.938187 
	C168.661270,139.493729 167.241837,139.949844 166.002808,139.987305 
	C166.029404,132.298904 167.339447,131.623032 174.484955,134.708893 
	C194.462692,143.336548 214.516815,151.787247 234.529327,160.334610 
	C237.128326,161.444611 239.660065,162.712158 242.577454,163.945251 
z"/>
<path fill="#7539EE" opacity="1.000000" stroke="none" 
	d="
M244.072021,184.023499 
	C237.559479,181.764496 230.889816,179.873505 224.565689,177.173248 
	C209.336884,170.670929 194.291931,163.739105 179.109665,157.125488 
	C177.218765,156.301804 174.946060,156.354538 172.432678,156.004181 
	C170.695419,153.575562 169.375748,151.143936 168.340454,148.218201 
	C170.175552,147.858032 171.891647,147.604141 173.252136,148.184235 
	C192.821793,156.528061 212.321930,165.035049 231.894089,173.372971 
	C236.118561,175.172638 240.561188,176.460266 244.931198,178.401276 
	C244.969131,180.210373 244.979172,181.601929 244.786407,183.116547 
	C244.330811,183.447220 244.160278,183.708527 244.072021,184.023499 
z"/>
<path fill="#7134ED" opacity="1.000000" stroke="none" 
	d="
M244.903320,177.983765 
	C240.561188,176.460266 236.118561,175.172638 231.894089,173.372971 
	C212.321930,165.035049 192.821793,156.528061 173.252136,148.184235 
	C171.891647,147.604141 170.175552,147.858032 168.291077,147.868042 
	C167.302521,145.617081 166.647736,143.222137 165.997879,140.407257 
	C167.241837,139.949844 168.661270,139.493729 169.692612,139.938187 
	C183.499588,145.888199 197.240662,151.990784 211.022537,157.999451 
	C220.724518,162.229355 230.449371,166.407990 240.208832,170.502701 
	C241.150543,170.897812 242.409668,170.536377 243.762665,170.261078 
	C244.003876,169.996017 244.478409,170.010544 244.721741,170.454437 
	C244.944489,173.260132 244.923904,175.621948 244.903320,177.983765 
z"/>
<path fill="#6E2FED" opacity="1.000000" stroke="none" 
	d="
M172.609863,159.009766 
	C174.798782,161.908859 176.573837,164.804977 178.667328,168.252625 
	C179.329971,170.530731 179.674194,172.257278 180.018417,173.983841 
	C178.283279,173.790024 176.396622,173.963013 174.846024,173.322479 
	C172.023285,172.156494 169.400040,170.507538 166.336273,169.002213 
	C165.978973,165.561172 165.978973,162.178024 165.978973,158.559418 
	C168.413589,158.734619 170.304794,158.870697 172.609863,159.009766 
z"/>
<path fill="#9567F2" opacity="1.000000" stroke="none" 
	d="
M244.212601,184.361465 
	C244.160278,183.708527 244.330811,183.447220 245.133987,183.156891 
	C248.255493,186.010437 250.966309,188.837021 253.373322,191.902191 
	C263.269257,204.503998 272.989899,217.244217 282.956177,229.789612 
	C286.360413,234.074799 290.296112,237.937759 293.989014,241.993622 
	C292.192078,244.560394 290.395172,247.127167 287.939636,249.840912 
	C286.369843,249.392975 285.209656,248.988724 284.585724,248.173874 
	C277.670380,239.142426 270.845520,230.041733 263.981079,220.971222 
	C258.605347,213.867874 253.270126,206.731857 247.749924,199.742233 
	C246.979950,198.767288 245.253906,198.547409 243.975128,197.562927 
	C243.976242,195.759720 243.972656,194.371597 243.969055,192.983490 
	C244.097107,190.222137 244.225143,187.460785 244.212601,184.361465 
z"/>
<path fill="#9E73F3" opacity="1.000000" stroke="none" 
	d="
M243.970428,197.978012 
	C245.253906,198.547409 246.979950,198.767288 247.749924,199.742233 
	C253.270126,206.731857 258.605347,213.867874 263.981079,220.971222 
	C270.845520,230.041733 277.670380,239.142426 284.585724,248.173874 
	C285.209656,248.988724 286.369843,249.392975 287.644775,249.999542 
	C288.008728,250.178101 288.008911,250.345047 288.012543,250.762573 
	C285.779114,253.477112 283.542206,255.941101 281.155884,258.704956 
	C281.006409,259.004791 280.510468,259.038208 280.220642,258.685669 
	C276.602081,253.853073 273.369659,249.297440 269.925507,244.907990 
	C261.649200,234.360138 253.311737,223.859375 244.883209,213.433197 
	C243.969437,212.302841 242.297043,211.785751 240.982727,210.588364 
	C241.650864,207.457001 242.312820,204.721466 242.983154,201.623062 
	C243.317825,200.166122 243.644119,199.072067 243.970428,197.978012 
z"/>
<path fill="#8E5CF1" opacity="1.000000" stroke="none" 
	d="
M294.109497,241.782272 
	C290.296112,237.937759 286.360413,234.074799 282.956177,229.789612 
	C272.989899,217.244217 263.269257,204.503998 253.373322,191.902191 
	C250.966309,188.837021 248.255493,186.010437 245.336792,183.033829 
	C244.979172,181.601929 244.969131,180.210373 244.931198,178.401276 
	C244.923904,175.621948 244.944489,173.260132 244.959106,170.456055 
	C250.102890,175.907669 255.517014,181.593582 260.349396,187.737091 
	C271.767395,202.252991 282.891693,216.999695 294.199371,231.603043 
	C294.964081,232.590668 296.267120,233.161407 297.666870,233.966766 
	C297.036804,236.107391 296.059662,238.207291 295.045776,240.656433 
	C294.694122,241.117920 294.434448,241.306351 294.109497,241.782272 
z"/>
<path fill="#6E2FED" opacity="1.000000" stroke="none" 
	d="
M311.009277,196.593811 
	C311.001465,197.750778 310.988800,198.493759 310.604767,199.607574 
	C309.344666,199.610001 308.140472,199.492905 307.615936,198.834412 
	C302.247040,192.094635 296.973694,185.278397 291.702362,178.461319 
	C282.372620,166.395844 272.972443,154.383240 263.783691,142.211151 
	C259.318726,136.296555 255.265015,130.071548 251.025131,123.987053 
	C254.714584,123.991974 258.404053,123.996902 262.554260,124.372971 
	C264.496613,126.861397 265.915985,129.025528 267.469696,131.088470 
	C279.523041,147.092346 291.548157,163.118088 303.718781,179.032471 
	C306.177338,182.247269 309.217041,185.017624 311.988800,187.992889 
	C311.660675,190.721878 311.332581,193.450851 311.009277,196.593811 
z"/>
<path fill="#7539EE" opacity="1.000000" stroke="none" 
	d="
M250.568726,123.979828 
	C255.265015,130.071548 259.318726,136.296555 263.783691,142.211151 
	C272.972443,154.383240 282.372620,166.395844 291.702362,178.461319 
	C296.973694,185.278397 302.247040,192.094635 307.615936,198.834412 
	C308.140472,199.492905 309.344666,199.610001 310.598022,199.979187 
	C310.313385,202.398499 309.664062,204.817001 309.012878,207.620636 
	C308.899445,208.320282 308.710846,208.578506 308.231995,208.895691 
	C305.720612,207.204895 302.939484,205.773117 301.202545,203.532043 
	C289.960663,189.027481 278.961975,174.334656 267.852661,159.727066 
	C258.951691,148.023178 250.007019,136.352539 241.051849,124.314377 
	C244.052094,123.965263 247.082214,123.968933 250.568726,123.979828 
z"/>
<path fill="#5E19E9" opacity="1.000000" stroke="none" 
	d="
M312.027832,163.585297 
	C312.326691,166.089203 312.609863,168.151855 312.572632,170.600250 
	C310.309479,169.564392 307.949554,168.478088 306.492798,166.665817 
	C298.191406,156.338440 290.005859,145.913330 282.001984,135.353912 
	C279.333954,131.834015 277.318481,127.819450 275.004700,124.031021 
	C283.690918,124.027519 292.377106,124.024025 301.576599,124.391449 
	C304.391785,131.174667 306.693726,137.586945 308.995667,143.999237 
	C310.001129,150.380844 311.006622,156.762466 312.027832,163.585297 
z"/>
<path fill="#6624EB" opacity="1.000000" stroke="none" 
	d="
M274.543671,124.022659 
	C277.318481,127.819450 279.333954,131.834015 282.001984,135.353912 
	C290.005859,145.913330 298.191406,156.338440 306.492798,166.665817 
	C307.949554,168.478088 310.309479,169.564392 312.616608,170.987518 
	C312.986969,174.355637 312.992981,177.722214 313.005585,181.547623 
	C312.679810,183.746704 312.347473,185.486938 312.001953,187.610031 
	C309.217041,185.017624 306.177338,182.247269 303.718781,179.032471 
	C291.548157,163.118088 279.523041,147.092346 267.469696,131.088470 
	C265.915985,129.025528 264.496613,126.861397 263.015442,124.380524 
	C266.704803,124.016045 270.393707,124.015167 274.543671,124.022659 
z"/>
<path fill="#6420EA" opacity="1.000000" stroke="none" 
	d="
M309.378784,144.000092 
	C306.693726,137.586945 304.391785,131.174667 302.045227,124.397995 
	C307.159271,123.046959 310.290253,125.316231 313.520233,129.424377 
	C319.177338,136.619568 326.019318,142.872040 331.926300,149.888702 
	C333.699463,151.994934 334.307465,155.265945 334.906891,158.117355 
	C335.374512,160.341919 335.002258,162.743042 334.999817,165.528580 
	C333.461212,165.330917 331.505249,165.062729 330.462006,163.943649 
	C325.238678,158.340591 320.360291,152.415039 315.111633,146.837173 
	C313.802338,145.445770 311.570007,144.922974 309.378784,144.000092 
z"/>
<path fill="#7F46EF" opacity="1.000000" stroke="none" 
	d="
M304.985199,220.745483 
	C303.441467,220.208389 301.427155,219.808929 300.451721,218.582947 
	C291.204926,206.960556 282.097717,195.226181 273.025482,183.466049 
	C265.875336,174.197433 258.950409,164.752701 251.689926,155.572495 
	C247.967255,150.865540 243.728806,146.566544 239.381668,142.045319 
	C236.468903,136.214920 233.897919,130.422348 231.192078,124.315186 
	C232.585052,124.794922 234.597595,125.209557 235.564285,126.443512 
	C243.505096,136.579819 251.167206,146.934067 259.077606,157.094727 
	C269.523254,170.511871 280.165863,183.775635 290.617126,197.188461 
	C293.654449,201.086472 296.165894,205.396088 299.229980,209.270615 
	C300.929626,211.419800 303.273071,213.059845 305.672791,214.971130 
	C305.708038,216.434387 305.396851,217.855881 305.048981,219.642548 
	C305.012299,220.007706 304.996582,220.499649 304.985199,220.745483 
z"/>
<path fill="#A67FF4" opacity="1.000000" stroke="none" 
	d="
M240.976562,210.984222 
	C242.297043,211.785751 243.969437,212.302841 244.883209,213.433197 
	C253.311737,223.859375 261.649200,234.360138 269.925507,244.907990 
	C273.369659,249.297440 276.602081,253.853073 279.972321,258.696228 
	C278.541656,260.942047 277.069489,262.824768 275.002075,264.706665 
	C264.058655,251.681198 253.790375,238.591309 243.268890,225.708221 
	C241.831207,223.947861 239.130859,223.218689 237.009491,221.758850 
	C237.002365,221.336868 237.000870,221.168121 237.276245,220.782074 
	C238.361664,218.039215 239.170212,215.513687 240.007919,212.693726 
	C240.350235,211.927582 240.663406,211.455902 240.976562,210.984222 
z"/>
<path fill="#AE8AF5" opacity="1.000000" stroke="none" 
	d="
M237.015121,222.012085 
	C239.130859,223.218689 241.831207,223.947861 243.268890,225.708221 
	C253.790375,238.591309 264.058655,251.681198 274.705750,264.857666 
	C274.742706,265.501495 274.480743,265.993469 274.108795,266.742126 
	C272.524689,268.236816 271.050598,269.474823 268.932343,270.817810 
	C267.014984,270.197083 265.365723,269.766541 264.527863,268.699158 
	C257.611664,259.888672 250.942154,250.883896 243.990570,242.102127 
	C240.907089,238.206848 237.345673,234.689911 234.000275,230.748993 
	C233.997650,230.328629 233.995941,230.160507 234.037842,229.637695 
	C235.059326,226.859360 236.037231,224.435730 237.015121,222.012085 
z"/>
<path fill="#D0BBFA" opacity="1.000000" stroke="none" 
	d="
M180.012146,266.005585 
	C180.677856,263.926819 181.343567,261.848022 182.013443,259.390289 
	C182.511414,258.440735 183.005203,257.870148 184.098724,257.184875 
	C189.482819,259.221863 194.424362,261.086365 199.012192,263.597168 
	C204.874023,266.805237 210.206543,267.994476 215.339813,262.034424 
	C217.084839,263.187561 218.787430,264.071075 219.832230,265.452209 
	C225.972946,273.569672 231.960251,281.803162 237.999252,289.997559 
	C234.340240,292.768280 231.095520,292.560028 228.252762,288.743469 
	C224.321701,283.465790 220.209900,278.318054 216.407410,272.950409 
	C211.855789,266.525269 209.997696,266.354767 204.153625,272.692261 
	C203.213165,273.317719 202.427475,273.637909 201.097763,273.721252 
	C198.905334,272.755981 197.296112,271.916107 195.601212,271.319885 
	C190.422562,269.498138 185.210938,267.770111 180.012146,266.005585 
z"/>
<path fill="#C5ACF8" opacity="1.000000" stroke="none" 
	d="
M251.004623,283.971710 
	C251.002930,284.141144 251.001221,284.310547 250.999756,284.733856 
	C248.911407,285.633728 246.822815,286.279663 244.105072,286.769958 
	C237.262573,278.530640 231.167450,270.351440 224.759216,262.425415 
	C222.985794,260.231903 220.281448,258.791046 218.146606,256.711670 
	C218.860458,255.284576 219.431946,254.150726 220.291382,252.871368 
	C222.050980,251.481644 223.522614,250.237427 225.295593,249.146225 
	C233.144165,259.010956 240.734955,268.689423 248.195419,278.467346 
	C249.424789,280.078613 250.082642,282.125916 251.004623,283.971710 
z"/>
<path fill="#CBB5F9" opacity="1.000000" stroke="none" 
	d="
M218.004227,257.004883 
	C220.281448,258.791046 222.985794,260.231903 224.759216,262.425415 
	C231.167450,270.351440 237.262573,278.530640 243.741669,286.813385 
	C242.239899,287.981262 240.472382,288.950012 238.352051,289.958160 
	C231.960251,281.803162 225.972946,273.569672 219.832230,265.452209 
	C218.787430,264.071075 217.084839,263.187561 215.341843,261.702820 
	C214.999390,260.889313 215.001221,260.447083 215.280975,259.864990 
	C216.373993,258.818329 217.189117,257.911621 218.004227,257.004883 
z"/>
<path fill="#D7C6F9" opacity="1.000000" stroke="none" 
	d="
M179.896393,266.219910 
	C185.210938,267.770111 190.422562,269.498138 195.601212,271.319885 
	C197.296112,271.916107 198.905334,272.755981 200.779709,273.753601 
	C198.776672,278.022461 195.690353,278.588440 191.567200,276.868378 
	C187.094666,275.002594 182.425812,273.607391 177.432281,272.011230 
	C177.681519,270.581787 178.341034,269.148071 179.005905,267.364990 
	C179.322266,266.894012 179.578720,266.700195 179.896393,266.219910 
z"/>
<path fill="#B695F6" opacity="1.000000" stroke="none" 
	d="
M234.001221,231.001221 
	C237.345673,234.689911 240.907089,238.206848 243.990570,242.102127 
	C250.942154,250.883896 257.611664,259.888672 264.527863,268.699158 
	C265.365723,269.766541 267.014984,270.197083 268.644745,270.962585 
	C268.740479,271.493958 268.479645,271.985474 268.109863,272.733276 
	C265.232819,274.633514 262.464691,276.277435 259.309998,277.616699 
	C252.521332,268.945465 246.290466,260.439514 239.643677,252.272018 
	C236.398392,248.284241 234.734756,242.674652 229.033264,240.677505 
	C229.706619,239.231995 230.349915,238.112030 231.136169,236.680206 
	C232.186478,234.579315 233.093857,232.790268 234.001221,231.001221 
z"/>
<path fill="#070707" opacity="1.000000" stroke="none" 
	d="
M371.257294,339.684387 
	C368.376923,339.119171 365.204773,339.067322 363.484924,337.460724 
	C360.682709,334.843079 361.663727,329.380585 364.693054,327.271667 
	C367.731293,325.156494 370.731415,325.550385 373.245331,328.194519 
	C376.188873,331.290497 375.458710,335.862366 371.257294,339.684387 
z"/>
<path fill="#070707" opacity="1.000000" stroke="none" 
	d="
M172.865540,340.202820 
	C170.568375,339.121307 168.029785,338.436615 166.923416,336.789764 
	C164.520599,333.213165 166.239746,328.256531 169.864456,326.583679 
	C173.236420,325.027527 176.905899,326.605255 178.403961,330.255402 
	C180.181076,334.585480 178.182098,338.445892 172.865540,340.202820 
z"/>
<path fill="#BDA1F7" opacity="1.000000" stroke="none" 
	d="
M229.003204,241.003052 
	C234.734756,242.674652 236.398392,248.284241 239.643677,252.272018 
	C246.290466,260.439514 252.521332,268.945465 258.961792,277.659698 
	C258.998383,278.447235 258.996674,278.887177 258.992004,279.656830 
	C256.552063,281.280670 254.115097,282.574738 251.341385,283.920288 
	C250.082642,282.125916 249.424789,280.078613 248.195419,278.467346 
	C240.734955,268.689423 233.144165,259.010956 225.334045,248.804230 
	C225.711075,246.869965 226.350983,245.430710 227.114868,243.710693 
	C227.826965,242.620972 228.415085,241.812012 229.003204,241.003052 
z"/>
<path fill="#9567F2" opacity="1.000000" stroke="none" 
	d="
M239.978760,212.988174 
	C239.170212,215.513687 238.361664,218.039215 236.895767,220.775131 
	C235.289520,220.715805 234.300232,220.542007 233.397705,220.162094 
	C218.263016,213.791260 203.139145,207.394699 188.012878,201.003860 
	C188.012878,201.003860 187.519089,200.997910 187.272491,200.998352 
	C186.683334,197.620209 186.340759,194.241638 186.365082,190.473969 
	C204.480927,197.719299 222.229843,205.353745 239.978760,212.988174 
z"/>
<path fill="#9E73F3" opacity="1.000000" stroke="none" 
	d="
M188.011871,201.436371 
	C203.139145,207.394699 218.263016,213.791260 233.397705,220.162094 
	C234.300232,220.542007 235.289520,220.715805 236.618912,220.992462 
	C237.000870,221.168121 237.002365,221.336868 237.009491,221.758850 
	C236.037231,224.435730 235.059326,226.859360 233.718842,229.496048 
	C218.573975,223.474487 203.791687,217.239868 189.009399,211.005249 
	C188.676559,207.959793 188.343719,204.914322 188.011871,201.436371 
z"/>
<path fill="#A67FF4" opacity="1.000000" stroke="none" 
	d="
M189.002991,211.251785 
	C203.791687,217.239868 218.573975,223.474487 233.675262,229.850739 
	C233.995941,230.160507 233.997650,230.328629 234.000275,230.748993 
	C233.093857,232.790268 232.186478,234.579315 230.769135,236.638824 
	C228.589951,236.212677 226.924911,235.505859 225.250839,234.821121 
	C213.176575,229.882568 201.100479,224.948471 189.024948,220.012970 
	C189.016983,217.636215 189.009033,215.259445 188.991516,212.437012 
	C188.981979,211.991333 188.996567,211.498322 189.002991,211.251785 
z"/>
<path fill="#AE8AF5" opacity="1.000000" stroke="none" 
	d="
M189.016724,220.410095 
	C201.100479,224.948471 213.176575,229.882568 225.250839,234.821121 
	C226.924911,235.505859 228.589951,236.212677 230.626190,236.950668 
	C230.349915,238.112030 229.706619,239.231995 229.033264,240.677521 
	C228.415085,241.812012 227.826965,242.620972 226.733521,243.706299 
	C225.135788,243.647690 224.020065,243.373978 222.954605,242.968277 
	C211.630035,238.656357 200.313461,234.323471 188.994690,229.996338 
	C188.994583,228.279129 188.994492,226.561935 188.983963,224.414902 
	C188.985199,222.925797 188.996841,221.866531 189.016724,220.410095 
z"/>
<path fill="#8E5CF1" opacity="1.000000" stroke="none" 
	d="
M240.007935,212.693726 
	C222.229843,205.353745 204.480927,197.719299 186.363037,190.042450 
	C185.674911,189.525040 185.355759,189.050049 184.999451,188.277512 
	C184.304001,185.253006 183.645691,182.526031 183.381439,179.400452 
	C186.159348,179.656799 188.650208,180.057968 190.908615,181.010345 
	C201.009445,185.269836 210.978043,189.848053 221.124908,193.991486 
	C228.299942,196.921402 235.684021,199.339417 242.974777,201.985947 
	C242.312820,204.721466 241.650864,207.457001 240.982742,210.588379 
	C240.663406,211.455902 240.350235,211.927582 240.007935,212.693726 
z"/>
<path fill="#070707" opacity="1.000000" stroke="none" 
	d="
M318.613953,339.786743 
	C317.163513,338.232147 315.115356,336.741272 315.231323,335.443787 
	C315.486145,332.591919 316.115021,329.072083 317.988281,327.310791 
	C319.254822,326.119934 324.048920,326.506195 325.209045,327.899323 
	C326.846069,329.865173 327.448578,333.583923 326.926575,336.246033 
	C326.155701,340.177338 322.583801,340.669220 318.613953,339.786743 
z"/>
<path fill="#B695F6" opacity="1.000000" stroke="none" 
	d="
M188.987000,230.345947 
	C200.313461,234.323471 211.630035,238.656357 222.954605,242.968277 
	C224.020065,243.373978 225.135788,243.647690 226.609528,243.987061 
	C226.350983,245.430710 225.711075,246.869965 225.032715,248.651215 
	C223.522614,250.237427 222.050980,251.481644 220.128464,252.560883 
	C216.952225,250.933167 214.359573,249.092178 211.475952,248.080521 
	C203.659088,245.338043 196.898483,239.489258 187.975800,239.982452 
	C187.982147,238.269470 187.988480,236.556473 187.984863,234.414734 
	C188.309692,232.889145 188.644485,231.792343 188.987000,230.345947 
z"/>
<path fill="#070707" opacity="1.000000" stroke="none" 
	d="
M397.927490,330.373474 
	C394.168304,331.247253 390.386383,331.705292 386.604462,332.163330 
	C386.263763,331.653900 385.923065,331.144501 385.582397,330.635101 
	C387.299713,329.102966 388.785370,326.847748 390.787994,326.206146 
	C393.883362,325.214478 396.630951,326.608887 397.927490,330.373474 
z"/>
<path fill="#BDA1F7" opacity="1.000000" stroke="none" 
	d="
M187.867386,240.199142 
	C196.898483,239.489258 203.659088,245.338043 211.475952,248.080521 
	C214.359573,249.092178 216.952225,250.933167 219.840515,252.706390 
	C219.431946,254.150726 218.860458,255.284576 218.146606,256.711670 
	C217.189117,257.911621 216.373993,258.818329 214.967728,259.703278 
	C208.229294,256.825104 202.139694,253.833847 195.910675,251.168518 
	C192.739182,249.811478 189.317017,249.040298 186.008163,248.004272 
	C186.339096,245.935135 186.670029,243.866013 186.999481,241.397827 
	C187.308838,240.879089 187.562485,240.684769 187.867386,240.199142 
z"/>
<path fill="#C5ACF8" opacity="1.000000" stroke="none" 
	d="
M185.896851,248.261200 
	C189.317017,249.040298 192.739182,249.811478 195.910675,251.168518 
	C202.139694,253.833847 208.229294,256.825104 214.689819,259.843201 
	C215.001221,260.447083 214.999390,260.889313 214.995529,261.663116 
	C210.206543,267.994476 204.874023,266.805237 199.012192,263.597168 
	C194.424362,261.086365 189.482819,259.221863 184.334641,257.020996 
	C184.312393,254.910782 184.653946,252.849777 184.989227,250.389740 
	C185.250473,249.499847 185.518021,249.008972 185.896851,248.261200 
z"/>
<path fill="#854FF0" opacity="1.000000" stroke="none" 
	d="
M242.983154,201.623062 
	C235.684021,199.339417 228.299942,196.921402 221.124908,193.991486 
	C210.978043,189.848053 201.009445,185.269836 190.908615,181.010345 
	C188.650208,180.057968 186.159348,179.656799 183.370514,179.000397 
	C182.151001,177.469742 181.336472,175.940536 180.270187,174.197586 
	C179.674194,172.257278 179.329971,170.530731 178.959869,168.426086 
	C180.737961,168.084198 182.759064,167.594650 184.312943,168.236420 
	C203.995819,176.365494 223.611481,184.657333 243.606674,192.945587 
	C243.972656,194.371597 243.976242,195.759720 243.975128,197.562927 
	C243.644119,199.072067 243.317825,200.166122 242.983154,201.623062 
z"/>
<path fill="#070707" opacity="1.000000" stroke="none" 
	d="
M202.071136,334.641724 
	C201.728928,330.609070 202.697632,327.262329 206.465225,326.451965 
	C208.489655,326.016510 212.030319,326.839386 212.923737,328.297363 
	C214.254501,330.469116 214.643906,333.942902 213.906540,336.405334 
	C213.403412,338.085571 210.422012,339.696960 208.321915,340.073090 
	C204.897079,340.686493 202.915298,338.311371 202.071136,334.641724 
z"/>
</svg>